<svg width="24" height="24" viewBox="0 0 24 24" xmlns="http://www.w3.org/2000/svg">
    <path d="m23.533 19.084-2.66-1.774-2.366-1.577a1.048 1.048 0 0 0-1.406.229l-1.464 1.881c-.314.409-.88.526-1.33.276-.994-.552-2.168-1.072-4.76-3.667-2.59-2.594-3.114-3.765-3.666-4.758a1.042 1.042 0 0 1 .276-1.33l1.881-1.465c.433-.336.532-.95.229-1.406L6.738 3.2 4.916.467a1.048 1.048 0 0 0-1.41-.318L1.404 1.41A2.568 2.568 0 0 0 .238 2.92c-.575 2.095-.69 6.717 6.717 14.125 7.408 7.408 12.03 7.292 14.126 6.717a2.567 2.567 0 0 0 1.509-1.166l1.26-2.102c.288-.48.149-1.1-.317-1.41z" fill="#FFF" fill-rule="nonzero"/>
</svg>
